<?xml version="1.0" encoding="UTF-8"?>
<svg id="Layer_6" data-name="Layer 6" xmlns="http://www.w3.org/2000/svg" viewBox="0 0 48 48">
  <defs>
    <style>
      .cls-1 {
        stroke-width: 0px;
      }
    </style>
  </defs>
  <path class="cls-1" d="m16.63,14.89c-.04-.09-.09-.19-.15-.28.09.14.15.28.19.43-.01-.05-.03-.1-.04-.15Z"/>
  <path class="cls-1" d="m16.34,14.41s0,.02,0,.03c0,0,0,0,0,0,.01-.01,0-.02,0-.02Z"/>
  <path class="cls-1" d="m12.87,16.19h-.05s.03.04.05.06c0-.02,0-.04,0-.06Z"/>
  <path class="cls-1" d="m13.83,16.15l.2-.07c-.24-.02-.43-.13-.78-.35-.32.21-.37.35-.38.46l1.02-.1-.06.06Z"/>
  <polygon class="cls-1" points="12.75 15.63 12.36 16.24 12.7 16.03 12.75 15.63"/>
  <path class="cls-1" d="m11.76,33.89c-.37.29-.91.6-.53.62l.38-.04c-.02-.25.05-.43.15-.58Z"/>
  <path class="cls-1" d="m4.86,22.23c.16.36.39.66.62.92-.2-.49-.11-.84-.62-.92Z"/>
  <path class="cls-1" d="m35.54,44.11c.17.01.2-.05.15-.18-.16-.01-.24.02-.15.18Z"/>
  <path class="cls-1" d="m5.48,23.15c.14.36.45.79,1.06,1.03-.03-.08-.07-.15-.11-.23-.33-.23-.65-.48-.95-.81Z"/>
  <path class="cls-1" d="m26.57,5.64c-.01-.08-.07-.19-.21-.36.06.08.14.22.21.36Z"/>
  <path class="cls-1" d="m5.24,16.99c.15,0,.26-.01.38-.02-.02-.06-.11-.09-.38.02Z"/>
  <path class="cls-1" d="m46.52,19.28c-.05-.29.94-.88-.63-.13.33-.15.65-.34.97-.55-.21-.25-1.35-.43-2.36-.57-1.02-.14-1.94-.23-2.05-.37-.61.09-1.08.11-1.52.09-.44-.03-.86-.1-1.33-.19.19.13,0,.66-.68.49.18-.26.2-.43.11-.56-.1-.13-.31-.21-.56-.29-.13-.04-.26-.08-.4-.12-.1-.04-.19-.08-.29-.13-.18-.1-.35-.24-.44-.46.37.6-1.78-.12-1.19.74-.5-.17.03-.43-.32-.75-.65.13-1.31-.04-2.01-.25-.35-.11-.7-.22-1.07-.31-.06-.01-.07-.02-.09-.03l-.06-.02s-.08-.02-.13-.03c-.08-.02-.17-.02-.27-.02-.04.07-.06.16-.09.26-.04.1-.09.2-.25.29-.03-.17-.04-.34-.01-.5.04-.12.07-.23.12-.33-.05-.02-.22.12-.35.17-.13.06-.22.02-.08-.28-.09.11-.2.3-.3.22-.02-.13-.03-.26-.06-.37,0-.02-.02-.08-.04-.12l-.05-.14-.1-.27c-.14-.36-.29-.7-.46-1.05-.22-.45-.46-.88-.7-1.32-.1-.18-.28-.75-.55-.61-.11.06-.22.11-.33.17.09-.3.19-.69.08-1.01-.05-.13-.14-.27-.21-.39-.16-.29-.31-.59-.46-.89-.35-.7-.68-1.41-.96-2.14-.23-.6-.44-1.25-.47-1.9-.08.5-.22.26-.37-.01.03.21-.33.16-.5.28l-.06-1.39c-.61.04-.64-1.21-1.18-1.09l.27.32c-.55-.14-.79.53-1.12,1.05l-.22-.45-1.81,3.67v-.42s-.1-.12-.1-.12l.09.55-.39.79c-.1-.11-.21-.22-.3-.35-.14.4-.12.89-.38,1.24-.11.15-.29.28-.49.4-.17.1-.35.18-.49.24.19.25.19.6.08.9-.11.29-.32.54-.52.78-.08-.26-.19-.52-.32-.76,0,.09,0,.19-.02.28-.11.02-.27.2-.4.55-.06.02-.12.03-.17.05-.13.05-.23.14-.31.26v-.4c-.16.02-.36.36-.39.18-.09.42.05.43.32.33-.07.14-.11.31-.11.46-.01.29.06.57.11.86-.07.14-.15.27-.24.35-.17.14-.43.19-.61.34,0,0,0,0-.01,0,0-.01,0-.02,0-.03-.08.05-.17.14-.26.21-.07,0-.13-.02-.21-.06.06.04.14.08.24.11-.1.1-.2.2-.3.3,0,0,0,0-.01.01-.04-.03-.07-.06-.1-.1-.02-.03-.05-.06-.08-.1-.1-.13-.23-.33-.21-.46-.04.02-.07.03-.11.05-.07.04-.14.09-.21.14-.15.11-.28.24-.41.37-.11.07-.22.16-.32.29-.14.11-.28.22-.44.3-.01,0-.03.01-.04.02-.11-.06-.23-.1-.25-.04.06.03.12.05.18.07-.17.08-.35.16-.51.27-.06.05-.12.1-.18.15,0,0-.01,0-.01,0,0,0,0,0,0,0-.03.03-.07.07-.1.1-.12.12-.24.24-.36.36-.03,0-.06,0-.09,0-.17-.01-.35-.03-.52.02-.05.02-.1.04-.14.07-.09-.13-.18-.24-.27-.35,0,.13.02.24-.27.44-.53-.13-1.14-.24-1.33-.3-.06-.02-.1,0-.14,0-.1.02-.2.03-.67-.21.22.16.15.26-.03.33-.19.07-.5.11-.8.16-.3.04-.59.08-.71.15-.1.06-.07.13.16.25-.49-.21-.85-.23-1.22-.23-.41,0-.82,0-1.65-.17.21.14.7.23-.28.29.02.05,0,.12-.02.16h0s0,.04.03.01c.29.03.56.09.72.16.01.4-1.19.56-1.29.78-.28,0-.31-.05-.33-.11-.02-.06-.03-.13-.3-.19-.06.11-.1.22-.14.33-.34-.14-.91-.22-1.33-.3-.41-.08-.66-.16-.23-.34l-1.14.15c-.73-.04-1.11.19-1.59.27.18.16.38.33.61.48.11.17.16.26.46.45.3.19.46.27.01.04l1.67,1.3-.15-.02c.57.59,1.45,1.23,2.17,1.82.36.3.7.6.98.92.28.32.51.66.69,1.08.52.37,1.02.69,1.61,1.42l-.05-.82-.02.09s-.02.05-.04.08c.4.23.73,1.17,1.11,1.06-.27.97,1.42,1.65,1.87,2.32l.32-.29c.19.2.39,1.37.63,1.53l.09.06s.03,0,.04.01c.03,0,.06.01.09.02.07.01.14.03.22.05l.32-.22c.22.01.32.17.36.33-.15.27-.36.5-.37.7-.14-.04-.09-.12.01-.19-.12.06-.2.11-.25.16-.03.02-.04.05-.06.07,0,.01-.01.02-.01.04,0,.03-.01.07-.02.1-.04.28,0,.58.04.87.09.59.2,1.17-.19,1.61.09.27.02.44-.11.59,0-.02,0-.04,0-.06,0,.02-.02.06-.02.1-.08.1-.18.19-.26.3.11-.09.2-.17.25-.25-.02.19-.03.48.02.78l-.42.05s0,.04,0,.07c-.2.25.15.25.48.16.04.15.1.29.18.41-.34.06-.32.25-.3.45,0,.1.01.2-.03.29-.05.12-.15.25-.34.35.25.28,0,1.67.38,2.01l-.24,1.38c-.14.12-.28.24-.43.36.11.09.21.17.33.23l-.16.93c-.21.3-.4.42-.62.28.12.23.18.39.22.51.04.13.05.23.06.32.02.1.03.2.09.29l-.09.54-.07.07c-.03.2.07.3.13.41.06.11.08.24-.12.6-.12.24-.22.5-.32.77.38-.01,1.44-.57,2.55-1.14,1.12-.57,2.27-1.13,3.3-1.38-.11-.22-.09-.34,0-.4.08-.06.22-.06.39-.07.33-.02.79-.07.75-.48.17.17.56.12.21.53.3-.22.57-.37.83-.49.13-.06.25-.11.37-.16.08-.03.16-.05.23-.08.29-.1.52-.24.64-.67.2.16-.01.39.13.47.04-.08.16-.31.31-.23.15.08-.02.23-.1.39.79-.46.54-1.14.28-1.77.56.07.74-.08.83-.63.25.12.59.2.13.53.3-.12,1.88-.62,1.66-1.12.08.04.18,0,.27-.07.04-.03.09-.07.12-.1.02-.03.03-.06.04-.08.44-.19.47-.16.87-.43-.04-.01-.08-.03-.12-.04.03-.22.08-.35.14-.42l.33.18c.08.08.17.15.28.18l-.03.06c.36.45.41.42.55.44.15.02.28.05.73.59l.13-.39s0,0,0,0l.8.42c.2.3.45.6.78.62l-.11-.27.25.13c.23.43.26,1.46.5,1.68.04.11-.18.04-.32.03.71.96.37-.41,1.14-.14,0,.32-.51.56-.06.86.03.08.16.12.34.14.27.06.61.13.97.2.35.08.7.16,1.02.3.32.14.61.32.87.62-.24-.38-.42-.72.03-.67.35.14.86.64,1.41,1.08.54.43,1.12.8,1.24.47.13.14.2.24.24.32.47.04,1.62.51,1.5.02.66.87,1.22,1.26,1.66,1.43-.17-.68-.52-1.62-.69-2.19-.17-.57-.15-.83.38-.28l-.42-2.02.16.17c-.06-.6-.2-1.08-.37-1.46-.17-.38-.38-.67-.58-.94.05-.23.21.02.29.07,0-.83-.05-1.35-.19-1.81-.07-.23-.17-.45-.3-.69-.03-.06-.07-.12-.11-.18-.04-.06-.08-.13-.12-.17-.08-.09-.17-.2-.27-.31l.4-.18c-.29-.24.34-1.89-.35-3.02.05,0,.13.02.21.1-.18-.31-.23-.68-.24-1.06,0-.19,0-.38.02-.58,0-.1.01-.19.02-.28v-.14s.03-.06.03-.06c.11-.31.14-.41-.65-.81-.02-.01-.04-.02-.06-.03,0-.17,0-.36.05-.57-.34.25-.5.17-.6.01-.1-.15-.13-.41-.42-.31.12-.18.44-.33.65-.35.22-.02.35.07.22.25h-.11c.13.15.27.18.39.17.06,0,.12-.03.18-.06.06-.03.1-.06.19-.13.3-.24.6-.52.78-.32.82-.82,1.7-1.55,2.59-2.26.22-.18.44-.35.66-.53l.16-.13c.05-.04.1-.08.19-.16.16-.14.32-.28.48-.42.64-.56,1.28-1.14,1.9-1.73-.33.04-.66.06-.97.08l.78-.71c.38-.17.92-.21.29.36.37-.11.54-.38.57-.6.03-.22-.09-.38-.18-.38.7-.51.89-.44.9-.24.01.2-.15.53.04.35l.44-.49-.22.11c.03-.38-.38-.36.33-1.01.63-.44.89-.33,1.1-.51.08-.01.18-.08.31-.27l1.17-1.06c-.48.24-.94.46-1.39.67ZM13.26,30.53l-.03-.06s.04.03.06.04l-.02.09s-.01-.05-.02-.06ZM3.68,19.63l.09.09c-.05-.03-.1-.05-.15-.08.02,0,.04,0,.06,0Zm14.32-3.89c.03-.22.07-.43.14-.64-.04.21-.08.43-.14.64Zm.98-3.82c-.04.06-.09.11-.16.14-.04.02-.07.03-.11.04.1-.07.2-.16.27-.19Zm-7.2,5.93c-.05.06-.11.11-.16.17l-.47.07c.15-.1.31-.18.51-.22.04,0,.08-.01.12-.02Zm-10.26.46c.09,0,.46.32.83.65-.35-.21-.65-.42-.83-.65Zm3.3,2.43l.67.65c-.11-.07-.22-.14-.34-.21-.43-.32-.45-.42-.33-.44Zm7.97,7.99s0-.03,0-.06c0-.03,0-.07-.03-.14,0-.02-.02-.05-.03-.08l.21.2c-.06.03-.11.06-.15.08Zm.33,2.6h.03s-.01.06-.01.06c0-.02-.01-.04-.02-.06Zm7.55,7.73c-.14-.03-.14-.24-.12-.51-.03.07-.07.14-.09.19-.17-.01-.26-.09-.31-.21l.42-.22c0,.08-.02.16-.03.24.05-.09.1-.2.15-.3l.09-.05c.23.08.42.15.54.17l-.67.68Zm25.24-18.97c.14-.3.24-.25.35-.19l-.35.19Z"/>
  <path class="cls-1" d="m8.67,16.55c-.06-.07-.25-.16-.14-.21l-.7.2c.4-.08.6-.02.84.01Z"/>
  <path class="cls-1" d="m8.53,16.34l.09-.02s-.07.02-.09.02Z"/>
  <path class="cls-1" d="m3.91,17.47c.39.03-.48-.37-.12-.29-.16-.2-.45-.02-.51.15-.06.17.09.33.63.14Z"/>
  <polygon class="cls-1" points="25.99 3.08 25.86 3.47 26.03 3.57 25.99 3.08"/>
  <path class="cls-1" d="m25.06,3.06l.45-.34-.57-.03c.07.08.2.24.12.37Z"/>
  <path class="cls-1" d="m24.4,3.73l-.57.03.45.34c-.08-.13.06-.28.12-.37Z"/>
</svg>